<?xml version="1.0" encoding="utf-8"?>
<!-- Generator: Adobe Illustrator 25.2.3, SVG Export Plug-In . SVG Version: 6.00 Build 0)  -->
<svg version="1.1" id="Layer_1" xmlns="http://www.w3.org/2000/svg" xmlns:xlink="http://www.w3.org/1999/xlink" x="0px" y="0px"
	 viewBox="0 0 200.52 227.64" style="enable-background:new 0 0 200.52 227.64;" xml:space="preserve">
<style type="text/css">
	.st0{fill:#7DDB31;}
</style>
<g>
	<g>
		<g>
			<polygon class="st0" points="44.99,13.76 44.23,95.32 85.46,54.9 			"/>
		</g>
		<g>
			<g>
				<path class="st0" d="M199.34,130.08c-2.33-5.58-7.53-9.04-13.57-9.04c-2.97,0-5.83,0.9-8.3,2.61l-30.5,21.54
					c-2.19-5.44-7.51-9.3-13.73-9.3h-27.03l-12.1-7.52c-0.08-0.05-0.16-0.09-0.24-0.14C88.8,125.46,83.08,124,77.31,124
					c-11.05,0-21.52,5.34-28.01,14.29l-14.37,19.83l-6.15-6.15c-1.88-1.88-4.92-1.9-6.83-0.05L0,173.2l6.78,6.99l18.51-17.95
					l40.46,40.46l-18.28,18.01l6.83,6.93l21.77-21.45c0.92-0.91,1.44-2.15,1.45-3.45c0.01-1.3-0.51-2.54-1.43-3.46l-5.04-5.03
					l5.34-5.67l60.07,6.4c1.32,0.13,2.65-0.27,3.67-1.13l55.79-47.48c0.11-0.09,0.21-0.18,0.31-0.28
					C200.48,141.79,201.67,135.65,199.34,130.08z M189.43,139.11l-54.01,45.97l-60.39-6.43c-1.5-0.17-3.02,0.39-4.06,1.5l-6.79,7.22
					L41.9,165.09L57.18,144c4.66-6.43,12.19-10.27,20.13-10.27c4.1,0,8.17,1.03,11.78,2.97l13.16,8.18
					c0.77,0.48,1.66,0.73,2.57,0.73h28.42c2.79,0,5.06,2.27,5.06,5.06c0,2.79-2.27,5.06-5.06,5.06H96.16v9.73h37.08
					c5.68,0,10.61-3.22,13.09-7.93l36.72-25.93c0.8-0.56,1.74-0.85,2.72-0.85c3.08,0,4.29,2.34,4.59,3.06
					C190.66,134.53,191.44,136.96,189.43,139.11z"/>
				
					<rect x="40.81" y="193.12" transform="matrix(0.7098 -0.7044 0.7044 0.7098 -127.4803 90.1478)" class="st0" width="9.73" height="13.37"/>
			</g>
		</g>
		<g>
			<g>
				<path class="st0" d="M142.54,17.69l-11.12,10.83c-5.07-5.22-10.08-7.84-15.04-7.84c-2.92,0-5.29,0.78-7.12,2.33
					c-1.82,1.56-2.74,3.35-2.74,5.39c0,1.73,0.81,3.44,2.42,5.13c1.58,1.73,4.76,3.57,9.56,5.53c8.53,3.53,14.37,6.55,17.52,9.05
					c3.15,2.5,5.57,5.49,7.26,8.99c1.69,3.5,2.54,7.41,2.54,11.75c0,4.34-0.9,8.35-2.71,12.04c-1.81,3.69-4.13,6.61-6.97,8.76
					c-2.84,2.15-6.93,3.78-12.27,4.9v15.38h-10.83V94.89c-5.03-0.58-9.31-1.84-12.85-3.8c-4.84-2.69-9.33-6.26-13.48-10.72
					l10.95-11.24c7.03,7.49,13.83,11.24,20.4,11.24c3.34,0,6.21-1.16,8.61-3.49c2.4-2.32,3.6-5.06,3.6-8.21
					c0-2.65-0.77-4.97-2.31-6.97c-1.58-2-4.61-4.03-9.1-6.11c-9.14-4.22-15.33-7.58-18.55-10.05c-3.23-2.48-5.64-5.26-7.23-8.36
					c-1.59-3.09-2.39-6.38-2.39-9.88c0-5.8,2.11-10.76,6.34-14.89c4.22-4.13,9.56-6.35,16.02-6.66V0h10.83v6.51
					c3.73,0.88,6.89,2.07,9.48,3.57C135.94,11.58,139,14.12,142.54,17.69z"/>
			</g>
		</g>
	</g>
</g>
</svg>
