<?xml version="1.0" encoding="utf-8"?>
<!-- Generator: Adobe Illustrator 25.2.3, SVG Export Plug-In . SVG Version: 6.00 Build 0)  -->
<svg version="1.1" id="Layer_1" xmlns="http://www.w3.org/2000/svg" xmlns:xlink="http://www.w3.org/1999/xlink" x="0px" y="0px"
	 viewBox="0 0 165.59 206.99" style="enable-background:new 0 0 165.59 206.99;" xml:space="preserve">
<style type="text/css">
	.st0{fill:#7DDB31;}
</style>
<g>
	<g>
		<g>
			<path class="st0" d="M158.69,206.99H29.32C13.16,206.99,0,193.83,0,177.66s13.16-29.32,29.32-29.32h129.37
				c3.81,0,6.9,3.09,6.9,6.9v44.85C165.59,203.9,162.5,206.99,158.69,206.99z M29.32,162.14c-8.56,0-15.52,6.96-15.52,15.52
				c0,8.56,6.96,15.52,15.52,15.52h122.47v-31.05H29.32z"/>
		</g>
		<g>
			<path class="st0" d="M6.9,184.56c-3.81,0-6.9-3.09-6.9-6.9V29.32C0,13.16,13.16,0,29.32,0h129.37c3.81,0,6.9,3.09,6.9,6.9v148.34
				c0,3.81-3.09,6.9-6.9,6.9H29.32c-8.56,0-15.52,6.96-15.52,15.52C13.8,181.47,10.71,184.56,6.9,184.56z M29.32,13.8
				c-8.56,0-15.52,6.96-15.52,15.52v123.47c4.5-2.82,9.83-4.45,15.52-4.45h122.47V13.8H29.32z"/>
		</g>
	</g>
</g>
<g>
	<g>
		<path class="st0" d="M103.94,46.87l-9.97,9.71c-4.55-4.68-9.04-7.02-13.48-7.02c-2.62,0-4.74,0.7-6.38,2.09
			c-1.64,1.4-2.45,3-2.45,4.83c0,1.55,0.72,3.08,2.17,4.6c1.41,1.55,4.27,3.2,8.57,4.96c7.64,3.17,12.88,5.87,15.7,8.11
			c2.82,2.24,4.99,4.92,6.51,8.06c1.52,3.13,2.27,6.65,2.27,10.54c0,3.89-0.81,7.49-2.43,10.79c-1.62,3.31-3.7,5.92-6.25,7.85
			c-2.55,1.93-6.22,3.39-11,4.39v13.79h-9.71v-13.48c-4.51-0.52-8.35-1.65-11.52-3.41c-4.34-2.41-8.37-5.61-12.09-9.61L63.7,93
			c6.3,6.71,12.4,10.07,18.29,10.07c3,0,5.57-1.04,7.72-3.12c2.15-2.08,3.23-4.54,3.23-7.36c0-2.38-0.69-4.46-2.07-6.25
			c-1.41-1.79-4.13-3.62-8.16-5.48c-8.2-3.79-13.74-6.79-16.63-9.01c-2.89-2.22-5.05-4.72-6.48-7.49c-1.43-2.77-2.14-5.72-2.14-8.86
			c0-5.2,1.89-9.65,5.68-13.35c3.79-3.7,8.57-5.69,14.36-5.97v-5.17h9.71v5.84c3.34,0.79,6.17,1.86,8.5,3.2
			C98.02,41.39,100.77,43.67,103.94,46.87z"/>
	</g>
</g>
</svg>
