<?xml version="1.0" encoding="utf-8"?>
<!-- Generator: Adobe Illustrator 25.2.3, SVG Export Plug-In . SVG Version: 6.00 Build 0)  -->
<svg version="1.1" id="Layer_1" xmlns="http://www.w3.org/2000/svg" xmlns:xlink="http://www.w3.org/1999/xlink" x="0px" y="0px"
	 viewBox="0 0 546.88 53.82" style="enable-background:new 0 0 546.88 53.82;" xml:space="preserve">
<style type="text/css">
	.st0{fill:#4BB941;}
	.st1{fill:#379144;}
	.st2{fill:#7DDB31;}
</style>
<g>
	<g>
		<path d="M98.81,13.84h8.31v4.86c0.9-1.92,2.09-3.37,3.59-4.37c1.49-0.99,3.12-1.49,4.9-1.49c1.25,0,2.57,0.33,3.94,0.99
			l-3.02,8.34c-1.14-0.57-2.07-0.85-2.8-0.85c-1.49,0-2.75,0.92-3.78,2.77c-1.03,1.85-1.54,5.47-1.54,10.86l0.04,1.88v15.62h-9.62
			V13.84z"/>
		<path d="M153.84,13.84h9.69v38.63h-9.69v-4.08c-1.89,1.8-3.79,3.1-5.69,3.89c-1.9,0.79-3.97,1.19-6.19,1.19
			c-4.99,0-9.3-1.93-12.94-5.81c-3.64-3.87-5.46-8.68-5.46-14.43c0-5.96,1.76-10.85,5.28-14.66c3.52-3.81,7.8-5.72,12.84-5.72
			c2.32,0,4.49,0.44,6.52,1.31c2.03,0.88,3.91,2.19,5.64,3.94V13.84z M143.65,21.8c-3,0-5.49,1.06-7.47,3.18
			c-1.98,2.12-2.97,4.83-2.97,8.15c0,3.34,1.01,6.08,3.03,8.24c2.02,2.15,4.5,3.23,7.45,3.23c3.04,0,5.57-1.06,7.57-3.18
			c2.01-2.12,3.01-4.89,3.01-8.33c0-3.36-1-6.08-3.01-8.17C149.25,22.84,146.71,21.8,143.65,21.8z"/>
		<path d="M174.75,13.84h9.69v3.96c2.2-1.85,4.19-3.14,5.97-3.87c1.78-0.72,3.61-1.09,5.48-1.09c3.83,0,7.08,1.34,9.75,4.01
			c2.25,2.27,3.37,5.63,3.37,10.08v25.53h-9.59V35.56c0-4.61-0.21-7.67-0.62-9.18c-0.41-1.51-1.13-2.67-2.16-3.46
			c-1.03-0.79-2.3-1.19-3.81-1.19c-1.96,0-3.64,0.66-5.05,1.97c-1.41,1.31-2.38,3.13-2.92,5.44c-0.28,1.21-0.42,3.82-0.42,7.84v15.5
			h-9.69V13.84z"/>
		<path d="M283.64,13.84h9.69v38.63h-9.69v-4.08c-1.89,1.8-3.79,3.1-5.69,3.89c-1.9,0.79-3.97,1.19-6.19,1.19
			c-4.99,0-9.3-1.93-12.94-5.81c-3.64-3.87-5.46-8.68-5.46-14.43c0-5.96,1.76-10.85,5.28-14.66c3.52-3.81,7.8-5.72,12.84-5.72
			c2.32,0,4.49,0.44,6.52,1.31c2.03,0.88,3.91,2.19,5.64,3.94V13.84z M273.45,21.8c-3,0-5.49,1.06-7.47,3.18
			c-1.98,2.12-2.97,4.83-2.97,8.15c0,3.34,1.01,6.08,3.03,8.24c2.02,2.15,4.5,3.23,7.45,3.23c3.04,0,5.57-1.06,7.57-3.18
			c2.01-2.12,3.01-4.89,3.01-8.33c0-3.36-1-6.08-3.01-8.17C279.05,22.84,276.51,21.8,273.45,21.8z"/>
		<path d="M340.36,21.65l-8.07,4.44c-1.52-1.59-3.02-2.69-4.5-3.3c-1.48-0.62-3.22-0.92-5.21-0.92c-3.63,0-6.56,1.08-8.8,3.24
			c-2.24,2.16-3.36,4.93-3.36,8.31c0,3.29,1.08,5.97,3.23,8.05c2.16,2.08,4.99,3.12,8.5,3.12c4.34,0,7.71-1.48,10.13-4.44l7.64,5.23
			c-4.14,5.39-9.99,8.08-17.54,8.08c-6.79,0-12.11-2.01-15.96-6.04c-3.85-4.02-5.77-8.73-5.77-14.13c0-3.74,0.93-7.18,2.81-10.33
			c1.87-3.15,4.48-5.62,7.83-7.42c3.35-1.8,7.1-2.7,11.24-2.7c3.83,0,7.28,0.76,10.33,2.29C335.93,16.67,338.42,18.84,340.36,21.65z
			"/>
		<path d="M355.09,0h9.69v13.84h5.75v8.34h-5.75v30.29h-9.69V22.19h-4.97v-8.34h4.97V0z"/>
		<path d="M53.06,0h40.13v9.81H78.05V52.3h-10.1V9.81H53.06V0z"/>
	</g>
	<g>
		<path class="st0" d="M219.14,13.84h29.58l-17.36,30.43h16.36v8.2h-31.25l17.44-30.43h-14.77V13.84z"/>
		<g>
			<path class="st0" d="M425.75,13.97c-4.49-5.92-10.91-8.84-18.25-8.84c-12.12,0-22.31,8.98-22.31,22.03
				c0,12.69,9.7,21.96,22.6,21.96c7.13,0,13.19-2.92,17.97-8.48l4.06,3.07c-5.28,6.63-13.05,10.12-22.39,10.12
				c-17.11,0-27.59-12.05-27.59-27.09c0-15.11,11.69-26.59,27.59-26.59c9.41,0,17.32,3.71,22.39,10.77L425.75,13.97z"/>
			<path class="st0" d="M469.38,14.75h4.78v37.86h-4.78v-6.49c-4.13,4.99-9.34,7.41-15.26,7.41c-11.05,0-19.39-9.2-19.39-19.96
				c0-10.76,8.56-19.82,19.53-19.82c6.13,0,11.34,2.64,15.11,7.91V14.75z M439.72,33.72c0,8.2,6.42,15.4,14.9,15.4
				c7.77,0,15.11-5.85,15.11-15.26c0-8.77-6.56-15.4-15.04-15.4C446,18.46,439.72,25.59,439.72,33.72z"/>
			<path class="st0" d="M491.2,20.24c2.85-4.14,5.92-6.49,9.77-6.49c2.21,0,3.35,0.71,4.35,1.28l-2.57,4.14
				c-0.57-0.29-1.5-0.71-2.57-0.71c-3.56,0-6.77,3.07-8.2,8.27c-0.64,2.42-0.78,6.34-0.78,11.48v14.4h-5.13V14.75h5.13V20.24z"/>
			<path class="st0" d="M542.03,46.12c-4.14,4.99-9.34,7.41-15.26,7.41c-11.05,0-19.39-9.2-19.39-19.96
				c0-10.76,8.55-19.82,19.53-19.82c6.13,0,11.34,2.64,15.11,7.91V0.14h4.85v52.47h-4.85V46.12z M512.37,33.72
				c0,8.2,6.42,15.4,14.9,15.4c7.77,0,15.04-5.85,15.04-15.26c0-8.77-6.49-15.4-14.97-15.4C518.64,18.46,512.37,25.59,512.37,33.72z
				"/>
		</g>
	</g>
	<g>
		<path class="st1" d="M30.06,25.66L15.05,11.86l0,29.91l15.02-13.9C30.73,27.25,30.72,26.27,30.06,25.66z"/>
		<path class="st2" d="M44.99,25.71L17.92,0.82c-1.06-0.98-2.88-0.28-2.88,1.1l0,9.94l15.02,13.81c0.66,0.61,0.66,1.59,0,2.2
			l-15.02,13.9l0,10.05c0,1.39,1.82,2.08,2.88,1.1l27.07-25C45.65,27.31,45.65,26.32,44.99,25.71z"/>
		<path class="st0" d="M2.87,0.7C1.81-0.27,0,0.43,0,1.81l0,50.03c0,1.38,1.81,2.08,2.88,1.1l12.17-11.18l0-29.91L2.87,0.7z"/>
	</g>
</g>
</svg>
