<?xml version="1.0" encoding="utf-8"?>
<!-- Generator: Adobe Illustrator 25.2.3, SVG Export Plug-In . SVG Version: 6.00 Build 0)  -->
<svg version="1.1" id="Layer_1" xmlns="http://www.w3.org/2000/svg" xmlns:xlink="http://www.w3.org/1999/xlink" x="0px" y="0px"
	 viewBox="0 0 79.67 79.67" style="enable-background:new 0 0 79.67 79.67;" xml:space="preserve">
<style type="text/css">
	.st0{fill:url(#SVGID_1_);}
	.st1{fill:#FFFFFF;}
</style>
<g>
	<linearGradient id="SVGID_1_" gradientUnits="userSpaceOnUse" x1="39.8337" y1="78.6053" x2="39.8337" y2="3.3027">
		<stop  offset="0" style="stop-color:#7DDB31"/>
		<stop  offset="0.9032" style="stop-color:#50BC3F"/>
		<stop  offset="1" style="stop-color:#4BB941"/>
	</linearGradient>
	<circle class="st0" cx="39.83" cy="39.83" r="39.83"/>
	<path class="st1" d="M64.09,37.45c0-0.27,0-0.55-0.01-0.82l-1.39,0.05c0.01,0.26,0.01,0.51,0.01,0.77
		c0,12.25-9.96,22.21-22.21,22.21c-11.12,0-20.49-8.21-22-19.16h0c-0.04-0.29-0.08-0.7-0.11-1.15l-5.42,0l8.44-8.42l2.71,2.71
		l5.7,5.71l-6.02,0h-0.01c0.03,0.41,0.08,0.83,0.13,1.15h0.05c1.43,7.83,8.29,13.77,16.53,13.77c9.29,0,16.81-7.53,16.81-16.81
		s-7.53-16.81-16.81-16.81c-7.51,0-13.88,4.93-16.03,11.73l-2.24-2.25l-0.81-0.81l-0.81,0.81l-8.44,8.42L10.2,40.5h2.77l4.12,0
		c1.51,11.74,11.52,20.55,23.4,20.55C53.5,61.05,64.09,50.47,64.09,37.45z M42.51,38.49c-0.3-0.38-0.88-0.77-1.74-1.16
		c-1.74-0.81-2.92-1.44-3.54-1.92s-1.07-1-1.38-1.59c-0.3-0.59-0.46-1.22-0.46-1.88c0-1.11,0.4-2.05,1.21-2.84
		c0.81-0.79,1.82-1.21,3.05-1.27v-1.1h2.06v1.24c0.71,0.17,1.31,0.4,1.81,0.68c0.49,0.29,1.08,0.77,1.75,1.45l-2.12,2.06
		c-0.97-1-1.92-1.49-2.87-1.49c-0.56,0-1.01,0.15-1.36,0.44c-0.35,0.3-0.52,0.64-0.52,1.03c0,0.33,0.15,0.66,0.46,0.98
		c0.3,0.33,0.91,0.68,1.82,1.05c1.63,0.67,2.74,1.25,3.34,1.72c0.6,0.48,1.06,1.05,1.38,1.71c0.32,0.67,0.48,1.41,0.48,2.24
		c0,0.83-0.17,1.59-0.52,2.3c-0.34,0.7-0.79,1.26-1.33,1.67c-0.54,0.41-1.32,0.72-2.34,0.93v2.93h-2.06v-2.87
		c-0.96-0.11-1.78-0.35-2.45-0.72c-0.92-0.51-1.78-1.19-2.57-2.04l2.09-2.14c1.34,1.43,2.64,2.14,3.89,2.14
		c0.64,0,1.18-0.22,1.64-0.66c0.46-0.44,0.69-0.96,0.69-1.56C42.95,39.31,42.81,38.87,42.51,38.49z"/>
</g>
</svg>
