<?xml version="1.0" encoding="utf-8"?>
<!-- Generator: Adobe Illustrator 25.2.3, SVG Export Plug-In . SVG Version: 6.00 Build 0)  -->
<svg version="1.1" id="Layer_1" xmlns="http://www.w3.org/2000/svg" xmlns:xlink="http://www.w3.org/1999/xlink" x="0px" y="0px"
	 viewBox="0 0 1920 287.34" style="enable-background:new 0 0 1920 287.34;" xml:space="preserve">
<style type="text/css">
	.st0{fill:#7ADA18;}
	.st1{enable-background:new    ;}
	.st2{fill:#FFFFFF;}
	.st3{fill:#9EFD33;}
</style>
<g>
	<path class="st0" d="M39.85,1.51L0.03,1.51v184.82c13.63,2.91,27.35,5.77,41.17,8.56c275.84,55.74,587.77,87.14,918.06,87.14
		c347.54,0,674.74-34.77,960.97-96.08V1.09L39.85,1.51z"/>
</g>
<g class="st1">
	<path class="st2" d="M714.78,216.5v-27.48h5.7c4.11,0,7.09,0.33,8.95,0.99c2.66,0.93,4.75,2.55,6.25,4.86
		c1.5,2.3,2.25,5.05,2.25,8.24c0,2.75-0.59,5.17-1.78,7.27c-1.19,2.09-2.73,3.64-4.63,4.63c-1.9,1-4.56,1.49-7.99,1.49H714.78z
		 M717.41,213.9h3.18c3.8,0,6.43-0.24,7.9-0.71c2.07-0.67,3.69-1.88,4.88-3.63c1.18-1.75,1.77-3.89,1.77-6.41
		c0-2.65-0.64-4.92-1.92-6.79c-1.28-1.88-3.07-3.17-5.36-3.86c-1.72-0.52-4.55-0.78-8.5-0.78h-1.94V213.9z"/>
	<path class="st2" d="M752.44,195.65c3.13,0,5.73,1.13,7.79,3.4c1.87,2.07,2.81,4.51,2.81,7.34c0,2.84-0.99,5.32-2.97,7.44
		c-1.98,2.12-4.52,3.19-7.63,3.19c-3.12,0-5.67-1.06-7.64-3.19c-1.98-2.12-2.97-4.61-2.97-7.44c0-2.81,0.94-5.26,2.81-7.32
		C746.69,196.79,749.29,195.65,752.44,195.65z M752.43,198.21c-2.17,0-4.04,0.8-5.61,2.41c-1.56,1.61-2.34,3.55-2.34,5.83
		c0,1.47,0.36,2.84,1.07,4.11c0.71,1.27,1.67,2.25,2.89,2.94c1.21,0.69,2.54,1.04,3.99,1.04c1.45,0,2.78-0.35,3.99-1.04
		c1.21-0.69,2.17-1.67,2.89-2.94c0.71-1.27,1.07-2.64,1.07-4.11c0-2.28-0.78-4.22-2.35-5.83S754.59,198.21,752.43,198.21z"/>
	<path class="st2" d="M767.53,196.17h2.62v9.49c0,2.32,0.12,3.91,0.37,4.78c0.37,1.25,1.09,2.23,2.14,2.95
		c1.05,0.72,2.31,1.08,3.77,1.08c1.46,0,2.7-0.35,3.71-1.06c1.02-0.7,1.72-1.63,2.1-2.77c0.26-0.78,0.39-2.45,0.39-4.99v-9.49h2.67
		v9.98c0,2.8-0.33,4.91-0.98,6.33c-0.65,1.42-1.64,2.53-2.95,3.33c-1.31,0.8-2.96,1.2-4.94,1.2c-1.98,0-3.63-0.4-4.96-1.2
		c-1.33-0.8-2.32-1.92-2.97-3.36c-0.65-1.44-0.98-3.6-0.98-6.49V196.17z"/>
	<path class="st2" d="M791.3,216.5v-28.17h2.62v11.34c1.09-1.35,2.32-2.35,3.68-3.02c1.36-0.67,2.84-1,4.46-1
		c2.87,0,5.33,1.04,7.36,3.13c2.03,2.09,3.05,4.62,3.05,7.59c0,2.94-1.03,5.45-3.08,7.53c-2.05,2.08-4.52,3.12-7.41,3.12
		c-1.65,0-3.15-0.35-4.5-1.06c-1.34-0.71-2.53-1.77-3.56-3.19v3.74H791.3z M801.76,214.5c1.45,0,2.8-0.36,4.03-1.07
		c1.23-0.72,2.21-1.72,2.94-3.02c0.73-1.3,1.09-2.66,1.09-4.11s-0.37-2.82-1.1-4.13c-0.73-1.31-1.72-2.33-2.95-3.05
		c-1.24-0.73-2.56-1.09-3.96-1.09c-1.43,0-2.79,0.36-4.07,1.09c-1.29,0.73-2.27,1.71-2.96,2.94c-0.69,1.23-1.03,2.62-1.03,4.17
		c0,2.35,0.77,4.32,2.32,5.9C797.59,213.71,799.5,214.5,801.76,214.5z"/>
	<path class="st2" d="M816.83,188.32h2.62v28.17h-2.62V188.32z"/>
	<path class="st2" d="M842,209.75l2.2,1.16c-0.72,1.42-1.56,2.57-2.51,3.44c-0.95,0.87-2.01,1.53-3.2,1.99
		c-1.18,0.45-2.52,0.68-4.02,0.68c-3.32,0-5.91-1.09-7.78-3.26c-1.87-2.17-2.81-4.63-2.81-7.37c0-2.58,0.79-4.88,2.37-6.89
		c2.01-2.57,4.69-3.85,8.06-3.85c3.47,0,6.23,1.31,8.3,3.94c1.47,1.86,2.22,4.17,2.24,6.95h-18.29c0.05,2.36,0.8,4.3,2.26,5.81
		c1.46,1.51,3.26,2.26,5.41,2.26c1.03,0,2.04-0.18,3.02-0.54c0.98-0.36,1.81-0.84,2.5-1.43C840.46,212.04,841.2,211.08,842,209.75z
		 M842,204.28c-0.35-1.39-0.86-2.51-1.52-3.34c-0.67-0.83-1.55-1.51-2.65-2.02c-1.1-0.51-2.25-0.77-3.46-0.77
		c-2,0-3.71,0.64-5.14,1.92c-1.05,0.93-1.84,2.34-2.38,4.2H842z"/>
	<path class="st2" d="M858.16,196.17h2.76l6.98,15.65l6.78-15.65h2.78l-12.12,27.76h-2.76l3.91-8.97L858.16,196.17z"/>
	<path class="st2" d="M890.48,195.65c3.13,0,5.73,1.13,7.79,3.4c1.87,2.07,2.81,4.51,2.81,7.34c0,2.84-0.99,5.32-2.97,7.44
		c-1.98,2.12-4.52,3.19-7.63,3.19c-3.12,0-5.67-1.06-7.64-3.19c-1.98-2.12-2.97-4.61-2.97-7.44c0-2.81,0.94-5.26,2.81-7.32
		C884.73,196.79,887.33,195.65,890.48,195.65z M890.47,198.21c-2.17,0-4.04,0.8-5.61,2.41c-1.56,1.61-2.34,3.55-2.34,5.83
		c0,1.47,0.36,2.84,1.07,4.11c0.71,1.27,1.67,2.25,2.89,2.94c1.21,0.69,2.54,1.04,3.99,1.04s2.78-0.35,3.99-1.04
		c1.21-0.69,2.17-1.67,2.89-2.94c0.71-1.27,1.07-2.64,1.07-4.11c0-2.28-0.78-4.22-2.35-5.83S892.63,198.21,890.47,198.21z"/>
	<path class="st2" d="M905.57,196.17h2.62v9.49c0,2.32,0.12,3.91,0.37,4.78c0.37,1.25,1.09,2.23,2.14,2.95
		c1.05,0.72,2.31,1.08,3.77,1.08c1.46,0,2.7-0.35,3.71-1.06c1.02-0.7,1.72-1.63,2.1-2.77c0.26-0.78,0.39-2.45,0.39-4.99v-9.49h2.67
		v9.98c0,2.8-0.33,4.91-0.98,6.33s-1.64,2.53-2.95,3.33c-1.31,0.8-2.96,1.2-4.94,1.2s-3.63-0.4-4.96-1.2
		c-1.33-0.8-2.32-1.92-2.97-3.36c-0.65-1.44-0.98-3.6-0.98-6.49V196.17z"/>
	<path class="st2" d="M928.18,196.17h2.67v2.97c0.8-1.17,1.64-2.05,2.52-2.62c0.88-0.58,1.81-0.87,2.76-0.87
		c0.72,0,1.49,0.23,2.32,0.69l-1.36,2.2c-0.55-0.24-1.01-0.35-1.38-0.35c-0.87,0-1.71,0.36-2.52,1.07
		c-0.81,0.72-1.43,1.83-1.85,3.33c-0.32,1.16-0.49,3.5-0.49,7.02v6.87h-2.67V196.17z"/>
	<path class="st2" d="M951.77,189.01h5.42c2.18,0,3.85,0.26,5.03,0.78c1.17,0.52,2.1,1.31,2.77,2.38c0.68,1.07,1.02,2.26,1.02,3.57
		c0,1.22-0.3,2.33-0.89,3.33c-0.59,1-1.47,1.81-2.62,2.44c1.43,0.49,2.53,1.06,3.3,1.71c0.77,0.65,1.37,1.45,1.8,2.37
		c0.43,0.93,0.64,1.93,0.64,3.02c0,2.2-0.81,4.07-2.42,5.6c-1.61,1.53-3.78,2.29-6.49,2.29h-7.55V189.01z M954.46,191.7v8.8h1.57
		c1.91,0,3.31-0.18,4.21-0.53c0.9-0.35,1.61-0.92,2.13-1.68c0.52-0.77,0.79-1.62,0.79-2.55c0-1.26-0.44-2.24-1.32-2.96
		c-0.88-0.72-2.28-1.07-4.2-1.07H954.46z M954.46,203.27v10.54h3.41c2.01,0,3.48-0.2,4.42-0.59c0.94-0.39,1.69-1.01,2.25-1.84
		c0.57-0.83,0.85-1.74,0.85-2.71c0-1.22-0.4-2.29-1.2-3.19s-1.9-1.53-3.29-1.87c-0.94-0.22-2.56-0.34-4.89-0.34H954.46z"/>
	<path class="st2" d="M972.9,196.17h2.62v9.49c0,2.32,0.12,3.91,0.37,4.78c0.37,1.25,1.09,2.23,2.14,2.95
		c1.05,0.72,2.31,1.08,3.77,1.08c1.46,0,2.7-0.35,3.71-1.06c1.02-0.7,1.72-1.63,2.1-2.77c0.26-0.78,0.39-2.45,0.39-4.99v-9.49h2.67
		v9.98c0,2.8-0.33,4.91-0.98,6.33c-0.65,1.42-1.64,2.53-2.95,3.33c-1.31,0.8-2.96,1.2-4.94,1.2s-3.63-0.4-4.96-1.2
		c-1.33-0.8-2.32-1.92-2.97-3.36c-0.65-1.44-0.98-3.6-0.98-6.49V196.17z"/>
	<path class="st2" d="M994.31,196.17h2.76l6.99,15.65l6.78-15.65h2.78l-12.12,27.76h-2.76l3.91-8.97L994.31,196.17z"/>
	<path class="st2" d="M1017.91,187.8c0.6,0,1.1,0.21,1.53,0.64c0.42,0.42,0.63,0.93,0.63,1.53c0,0.59-0.21,1.09-0.63,1.51
		c-0.42,0.42-0.93,0.64-1.53,0.64c-0.58,0-1.09-0.21-1.51-0.64c-0.42-0.42-0.63-0.93-0.63-1.51c0-0.6,0.21-1.11,0.63-1.53
		C1016.83,188.01,1017.33,187.8,1017.91,187.8z M1016.61,196.17h2.62v20.33h-2.62V196.17z"/>
	<path class="st2" d="M1024.67,196.17h2.62v3.64c1.05-1.39,2.2-2.44,3.47-3.13c1.27-0.69,2.65-1.04,4.15-1.04
		c1.52,0,2.87,0.39,4.04,1.16c1.18,0.77,2.05,1.81,2.61,3.12s0.84,3.34,0.84,6.11v10.46h-2.62v-9.7c0-2.34-0.1-3.9-0.29-4.69
		c-0.3-1.35-0.88-2.36-1.74-3.04c-0.86-0.68-1.98-1.02-3.36-1.02c-1.58,0-3,0.52-4.25,1.57c-1.25,1.05-2.08,2.34-2.48,3.89
		c-0.25,1.01-0.37,2.85-0.37,5.53v7.45h-2.62V196.17z"/>
	<path class="st2" d="M1065.52,196.17h2.62v16.2c0,2.85-0.25,4.94-0.75,6.26c-0.68,1.87-1.87,3.31-3.57,4.32s-3.73,1.51-6.11,1.51
		c-1.74,0-3.31-0.25-4.7-0.74c-1.39-0.49-2.52-1.16-3.39-1.99c-0.87-0.83-1.67-2.05-2.41-3.64h2.84c0.77,1.35,1.77,2.34,2.99,2.99
		c1.22,0.65,2.74,0.97,4.55,0.97c1.78,0,3.29-0.33,4.52-1c1.23-0.67,2.1-1.5,2.63-2.5c0.52-1.01,0.79-2.63,0.79-4.87v-1.05
		c-0.98,1.25-2.19,2.2-3.61,2.87c-1.42,0.67-2.93,1-4.53,1c-1.87,0-3.63-0.46-5.27-1.39c-1.65-0.93-2.92-2.18-3.82-3.75
		c-0.9-1.57-1.35-3.29-1.35-5.17s0.47-3.63,1.4-5.26c0.94-1.63,2.23-2.91,3.88-3.86c1.65-0.95,3.39-1.42,5.23-1.42
		c1.52,0,2.94,0.31,4.25,0.94c1.32,0.63,2.58,1.67,3.81,3.11V196.17z M1057.81,198.17c-1.48,0-2.86,0.36-4.13,1.07
		c-1.27,0.72-2.27,1.71-2.99,2.97s-1.08,2.63-1.08,4.1c0,2.23,0.75,4.07,2.24,5.53c1.49,1.46,3.43,2.19,5.81,2.19
		c2.4,0,4.34-0.72,5.8-2.17c1.46-1.45,2.2-3.34,2.2-5.7c0-1.53-0.34-2.9-1.01-4.1c-0.67-1.2-1.63-2.15-2.86-2.85
		C1060.55,198.52,1059.23,198.17,1057.81,198.17z"/>
	<path class="st2" d="M1084.75,189.01h5.47c3.14,0,5.26,0.14,6.35,0.41c1.57,0.39,2.85,1.18,3.85,2.38c1,1.2,1.49,2.71,1.49,4.53
		c0,1.83-0.49,3.34-1.46,4.53c-0.97,1.19-2.31,1.99-4.02,2.4c-1.25,0.3-3.57,0.45-6.99,0.45h-1.96v12.78h-2.75V189.01z
		 M1087.49,191.7v9.32l4.65,0.06c1.88,0,3.26-0.17,4.13-0.51s1.56-0.89,2.05-1.66c0.5-0.76,0.75-1.62,0.75-2.56
		c0-0.92-0.25-1.76-0.75-2.53c-0.5-0.76-1.16-1.31-1.97-1.63c-0.82-0.32-2.15-0.48-4.01-0.48H1087.49z"/>
	<path class="st2" d="M1116.6,195.65c3.13,0,5.73,1.13,7.79,3.4c1.87,2.07,2.81,4.51,2.81,7.34c0,2.84-0.99,5.32-2.97,7.44
		c-1.98,2.12-4.52,3.19-7.63,3.19c-3.12,0-5.67-1.06-7.64-3.19c-1.98-2.12-2.97-4.61-2.97-7.44c0-2.81,0.94-5.26,2.81-7.32
		C1110.85,196.79,1113.45,195.65,1116.6,195.65z M1116.59,198.21c-2.17,0-4.04,0.8-5.61,2.41c-1.56,1.61-2.34,3.55-2.34,5.83
		c0,1.47,0.36,2.84,1.07,4.11c0.71,1.27,1.67,2.25,2.89,2.94s2.54,1.04,3.99,1.04s2.78-0.35,3.99-1.04s2.17-1.67,2.89-2.94
		c0.71-1.27,1.07-2.64,1.07-4.11c0-2.28-0.78-4.22-2.35-5.83C1120.62,199.01,1118.75,198.21,1116.59,198.21z"/>
	<path class="st2" d="M1129.28,196.17h2.69l6.23,14.76l6.49-14.76h0.47l6.53,14.76l6.35-14.76h2.72l-8.83,20.33h-0.48l-6.5-14.55
		l-6.5,14.55h-0.49L1129.28,196.17z"/>
	<path class="st2" d="M1180.94,209.75l2.2,1.16c-0.72,1.42-1.56,2.57-2.51,3.44c-0.95,0.87-2.01,1.53-3.2,1.99
		c-1.19,0.45-2.52,0.68-4.02,0.68c-3.32,0-5.91-1.09-7.78-3.26c-1.87-2.17-2.81-4.63-2.81-7.37c0-2.58,0.79-4.88,2.37-6.89
		c2.01-2.57,4.69-3.85,8.06-3.85c3.47,0,6.23,1.31,8.3,3.94c1.47,1.86,2.22,4.17,2.24,6.95h-18.29c0.05,2.36,0.8,4.3,2.26,5.81
		c1.46,1.51,3.26,2.26,5.41,2.26c1.03,0,2.04-0.18,3.02-0.54c0.98-0.36,1.81-0.84,2.5-1.43
		C1179.4,212.04,1180.14,211.08,1180.94,209.75z M1180.94,204.28c-0.35-1.39-0.86-2.51-1.52-3.34c-0.67-0.83-1.55-1.51-2.65-2.02
		c-1.1-0.51-2.25-0.77-3.46-0.77c-2,0-3.71,0.64-5.14,1.92c-1.05,0.93-1.84,2.34-2.38,4.2H1180.94z"/>
	<path class="st2" d="M1187.7,196.17h2.67v2.97c0.8-1.17,1.64-2.05,2.52-2.62c0.88-0.58,1.81-0.87,2.76-0.87
		c0.72,0,1.49,0.23,2.32,0.69l-1.36,2.2c-0.55-0.24-1.01-0.35-1.38-0.35c-0.87,0-1.71,0.36-2.52,1.07
		c-0.81,0.72-1.43,1.83-1.85,3.33c-0.32,1.16-0.49,3.5-0.49,7.02v6.87h-2.67V196.17z"/>
	<path class="st2" d="M1202.93,212.39c0.64,0,1.18,0.22,1.63,0.67c0.45,0.45,0.67,1,0.67,1.64c0,0.64-0.22,1.18-0.67,1.63
		c-0.45,0.45-0.99,0.68-1.63,0.68s-1.18-0.23-1.63-0.68s-0.67-1-0.67-1.63c0-0.65,0.22-1.2,0.67-1.64
		C1201.75,212.61,1202.29,212.39,1202.93,212.39z M1204.25,188.32v21.3h-2.71v-21.3H1204.25z"/>
</g>
<g>
	<polygon class="st3" points="890.6,81.35 870.4,127.48 885.95,127.48 883.64,116.79 918.14,80.99 	"/>
	<polygon class="st3" points="843.5,94.27 843.5,73.65 858.13,73.65 858.13,55.6 849.17,37.4 831.9,82.18 784.71,82.83 
		820.19,118.43 810.21,161.57 839.66,147.08 862.83,94.27 	"/>
	<polygon class="st3" points="875.38,147.75 875.38,152.4 893.21,161.19 890.32,147.75 	"/>
	<path class="st3" d="M800.77,103.96l-6.19-6.19c-2.96,18.06,2.68,36.47,15.23,49.79l1.92-8.3
		C803.88,129.23,799.98,116.67,800.77,103.96z"/>
	<path class="st3" d="M814.86,125.77c-1.78-3.61-3.03-7.45-3.71-11.41l-3.8-3.82c0.53,7.11,2.72,14,6.4,20.1L814.86,125.77z"/>
	<path class="st3" d="M832.69,70.32l1.75-4.52c-6.7,2.9-12.59,7.38-17.18,13.05h4.45C824.87,75.42,828.58,72.54,832.69,70.32z"/>
	<path class="st3" d="M889.44,126.89l1.02,4.78c4.67-7.24,7.16-15.68,7.16-24.29l-3.46,3.59c-0.36,4.03-1.29,7.98-2.78,11.74
		C890.81,124.13,890.16,125.53,889.44,126.89z"/>
	<path class="st2" d="M886.78,131.59h-22.61l21.96-50.18l0.29-0.66l1.31-2.98h-16.5V66.19h-8.98v11.57h-14.63v12.37h21.51
		l-23.44,53.5h16.56v12.7h8.98v-12.7h18.14L886.78,131.59z"/>
	<path class="st3" d="M862.5,56.48c3.08,0.6,6.1,1.48,9.02,2.63c1.33,0.53,2.61,1.1,3.87,1.72c6.29,3.11,11.88,7.47,16.42,12.82
		c0.48,0.56,0.94,1.14,1.41,1.73c0.46,0.59,1.21,1.55,1.78,2.4l8.07-0.11c-9.39-16.03-25.8-26.68-44.27-28.72l3.09,6.19L862.5,56.48
		z"/>
	<path class="st3" d="M892.32,140.26l1.78,8.27c5.57-5.62,9.94-12.3,12.85-19.65c0.03-0.11,0.07-0.22,0.11-0.32h-7.48
		C897.69,132.77,895.25,136.7,892.32,140.26z"/>
	<path class="st3" d="M909.74,94.8l-5.92,6.19c0.4,3.2,0.5,6.43,0.28,9.65h6.87C911.27,105.33,910.86,100,909.74,94.8z"/>
	<path class="st2" d="M910.66,113.96h-6.88c-0.52,3.84-1.46,7.61-2.8,11.24h23.5v-11.24H910.66z"/>
	<path class="st2" d="M996.93,132.95c-8.77,8.57-16.33,12.76-28.78,12.76c-20.74,0-35.02-14.47-35.02-34.85
		c0-20.97,16.22-34.73,35.21-34.73c11.08,0.03,21.61,4.89,28.82,13.3l-8.86,8.49c-5.98-6.36-12.54-9.68-20.29-9.68
		c-12.31-0.17-22.42,9.66-22.59,21.97c0,0.21,0,0.42,0,0.62c0,13.64,9.77,22.78,22.87,22.78c8.21,0,13.75-3.32,20.01-9.6
		L996.93,132.95z"/>
	<path class="st2" d="M1005.69,76.12h12.26v67.88h-12.26V76.12z"/>
	<path class="st2" d="M1029.12,95.05h12.26v25.55c0,8.75,2.77,13.38,9.28,13.38s9.28-4.53,9.28-12.82v-26.1h12.26v22.59
		c0,9.03-0.56,15.68-5.72,21.39c-3.87,4.35-8.94,6.19-15.77,6.19c-11.8,0-19.08-6-21.01-17.43c-0.48-3.42-0.64-6.88-0.46-10.33
		L1029.12,95.05z"/>
	<path class="st2" d="M1096.64,144.01h-12.26V76.12h12.26v24.28c4.01-4.27,9.61-6.67,15.46-6.63c12.62,0,23.2,10.5,23.2,25.81
		c0,15.03-10.96,25.73-23.41,25.73c-5.72,0.06-11.21-2.29-15.12-6.46L1096.64,144.01z M1096.13,119.42
		c0,8.86,5.91,14.66,13.47,14.66s13.27-6.19,13.27-14.57c0-8.03-5.16-14.47-13.27-14.47
		C1101.71,105.01,1096.13,110.82,1096.13,119.42z"/>
</g>
</svg>
